<svg version="1" xmlns="http://www.w3.org/2000/svg" width="216" height="216" viewBox="0 0 162.000000 162.000000"><path d="M78.5 13c.2.3-1.4.4-3.6.3-2.3-.1-3.7.2-3.4.7.3.6 0 .7-.8.4-2.1-.8-14.2 5.9-19.1 10.8-2.5 2.4-6.2 5.2-8.3 6.3-3.7 2-8 5.5-6.6 5.5.4 0-.2.6-1.2 1.4-1.1.8-2.4 1.2-2.9.9-.5-.4-.6-.1-.2.5.4.7-.3 2.2-1.5 3.4-4 4.2-11.8 17.6-12.3 21-.1.3-.4.9-.8 1.3s-.4 1.3-.1 2.1c.3.9-.2 1.4-1.3 1.5-1.2 0-1.4.3-.6.6 1 .4 1 .8 0 2.1-1.1 1.3-1.1 1.4.1.7 1-.6 1.2-.4.6.5-1.2 2-1.6 5.7-1.4 15 .3 12.9.3 13.8 1.1 13.3.5-.2.9.5.9 1.6.2 3.2 1 5.5 4 11.4 1 2.2 1.3 3.5.6 3.1-.7-.4-.2.4 1.1 1.8 1.2 1.3 2.2 3 2.2 3.6 0 .7.5 1.2 1.1 1.2.8 0 .7.6-.2 1.7-1.2 1.4-1.2 1.5 0 .9 1.6-1 8.4 6.1 7.4 7.7-.3.6-.1.7.5.3.6-.3 1.8.4 2.6 1.6.9 1.2 1.6 1.9 1.6 1.5 0-.4.9.1 1.9 1 1.1.9 1.7 2.3 1.4 3.2-.4 1.2-.3 1.3.4.3 1.2-1.6 4.3-.5 3.7 1.3-.4.9.1 1.3 1.2 1.1 1.9-.3 8.4 3.1 8.4 4.2 0 .4 1.2.8 2.6.8 1.4.1 3.3.9 4.3 1.8s2.2 1.6 2.7 1.6.2-.5-.6-1.1c-1.2-.9-1.2-1 .3-.5 1 .3 2.3.6 2.8.6.6 0 .8.4.5.8-.2.4 1.1.6 3.1.4 2.8-.4 3.4-.2 2.7.9-.6 1.1-.5 1.2.7.3 1.5-1.1 2.8-1.2 4.4-.3.9.5 5.1.4 5.8-.1.1-.1 1.2-.3 2.5-.4 1.4-.2 2.2.3 2.2 1.3 0 1.2.2 1.2 1.3-.3.8-1.2 2.8-1.8 5.9-1.9 2.7-.1 4.4-.6 4-1.2-.3-.5-.2-.7.3-.3.4.4 1.4.3 2.2-.3.7-.6 2.2-.9 3.4-.6 1.7.5 1.8.3.7-1-1.2-1.5-1.1-1.5.9-.4 1.9 1 2.2.9 1.7-.4-.4-1.1 0-1.5 1.6-1.5 1.1 0 1.9-.4 1.6-.9-.3-.5.1-1.1.9-1.4 1-.4 1.2-.1.9 1.1-.4 1.2-.2 1.1.7-.3 2-3.1 5.3-5.5 7-5.1 1 .2 1.6-.3 1.5-1.3-.1-1.1.6-1.5 2.4-1.4 1.4.1 1.9-.1 1.2-.4-1-.4-.9-.9.4-2.4 1.4-1.5 2-1.7 2.6-.7.6.8.7.4.3-1.1-.6-1.9-.4-2.3.8-1.8 1.1.4 1.4.2 1.1-.7-.3-.8 0-1.7.7-2.2.8-.4 1-.3.5.4-.4.7-.5 1.2-.2 1.2s1.4-1.9 2.5-4.3c1.1-2.3 2.1-3.8 2.2-3.2 0 .5.4-.1.8-1.5s1.2-2.5 1.8-2.5c.6 0 1.5-.4 2-.9s.3-.6-.4-.2c-1.4.8-1.8-.6-.5-1.8.4-.4.7-1.3.7-1.9.1-.7.6-1.1 1.2-1 .5.1.9-.9.7-2.2-.1-1.4.1-2.5.6-2.5.4 0 .8-.6.7-1.2-.1-3.6.4-5.9 1.2-5.4.5.4.7-.3.4-1.3-.3-1 .1-2.9.7-4.1 1-1.8.9-2.1-.1-1.5-.8.6-1 .4-.4-.5 1-1.7 1.3-17 .3-16.3-.7.4-1.2-3.3-1.2-8.9 0-.9-.3-1.5-.8-1.2-.7.5-1.2-1.3-1.1-4.4.1-.6-.3-1.2-.8-1.2s-.9-.5-.9-1.2c0-2.4-8.3-15-13.1-20-2.7-2.8-4.9-5.3-4.9-5.6 0-.4-2.7-3.2-6-6.4-3.3-3.1-6-6.1-6-6.7 0-1.5-4.2-4.1-6.5-4.1-1.2 0-3.9-.9-6.1-1.9-2.1-1.1-4.2-1.7-4.6-1.4-.5.2-.8 0-.8-.5 0-1 .2-.9-9.7-1.4-3.9-.2-7-.1-6.8.2z"/><path d="M118.6 143.7c-.6 1.4-.5 1.5.5.6.7-.7 1-1.5.7-1.8-.3-.3-.9.2-1.2 1.2zM59.5 154c.3.5.8 1 1.1 1 .2 0 .4-.5.4-1 0-.6-.5-1-1.1-1-.5 0-.7.4-.4 1z"/></svg>